<?xml version="1.0" encoding="UTF-8"?>
<svg width="512" height="512" viewBox="0 0 512 512" fill="none" xmlns="http://www.w3.org/2000/svg">
  <rect width="512" height="512" rx="128" fill="#2563EB"/>
  <path d="M128 256C128 185.308 185.308 128 256 128C326.692 128 384 185.308 384 256C384 326.692 326.692 384 256 384C185.308 384 128 326.692 128 256Z" fill="white"/>
  <path d="M256 160C203.07 160 160 203.07 160 256C160 308.93 203.07 352 256 352C308.93 352 352 308.93 352 256C352 203.07 308.93 160 256 160ZM256 320C220.71 320 192 291.29 192 256C192 220.71 220.71 192 256 192C291.29 192 320 220.71 320 256C320 291.29 291.29 320 256 320Z" fill="#2563EB"/>
  <path d="M256 208C229.49 208 208 229.49 208 256C208 282.51 229.49 304 256 304C282.51 304 304 282.51 304 256C304 229.49 282.51 208 256 208Z" fill="white"/>
</svg> 